<svg xmlns="http://www.w3.org/2000/svg" viewBox="0 0 24 24" fill="currentColor" fill-rule="evenodd" stroke="none"><title>比较报价</title><path d="M 13.000 3.708 L 12.917 3.792 L 12.833 3.792 L 12.417 4.208 L 12.417 4.292 L 12.250 4.542 L 12.250 12.375 L 12.167 12.458 L 12.167 13.125 L 12.250 13.208 L 12.250 17.708 L 12.167 17.792 L 12.167 18.542 L 12.250 18.625 L 12.250 19.458 L 12.333 19.542 L 12.333 19.625 L 12.417 19.708 L 12.417 19.792 L 12.667 20.042 L 12.750 20.042 L 12.917 20.208 L 13.083 20.208 L 13.167 20.292 L 20.750 20.292 L 20.833 20.208 L 20.917 20.208 L 21.000 20.125 L 21.083 20.125 L 21.250 19.958 L 21.333 19.958 L 21.333 19.875 L 21.500 19.708 L 21.500 19.625 L 21.583 19.542 L 21.583 19.375 L 21.667 19.292 L 21.667 4.708 L 21.583 4.625 L 21.583 4.458 L 21.500 4.375 L 21.500 4.292 L 21.417 4.208 L 21.417 4.125 L 21.167 3.875 L 21.083 3.875 L 20.833 3.708 L 20.667 3.708 L 20.583 3.625 L 13.250 3.625 L 13.167 3.708 Z M 13.333 4.542 L 20.500 4.542 L 20.750 4.792 L 20.750 19.125 L 20.500 19.375 L 20.083 19.375 L 20.000 19.458 L 19.833 19.458 L 19.750 19.375 L 18.667 19.375 L 18.583 19.458 L 17.250 19.458 L 17.167 19.375 L 16.417 19.375 L 16.333 19.458 L 16.000 19.458 L 15.917 19.375 L 14.833 19.375 L 14.750 19.458 L 14.167 19.458 L 14.083 19.375 L 14.000 19.458 L 13.917 19.375 L 13.333 19.375 L 13.083 19.125 L 13.083 4.875 L 13.167 4.792 L 13.167 4.708 Z M 16.333 16.042 L 16.333 16.375 L 16.667 16.708 L 19.333 16.708 L 19.583 16.458 L 19.583 16.375 L 19.667 16.292 L 19.667 16.042 L 19.583 15.958 L 19.583 15.875 L 19.333 15.708 L 16.667 15.708 L 16.583 15.792 L 16.500 15.792 Z M 14.667 15.625 L 14.583 15.708 L 14.500 15.708 L 14.333 15.875 L 14.333 15.958 L 14.250 16.042 L 14.250 16.375 L 14.333 16.458 L 14.333 16.542 L 14.500 16.708 L 14.583 16.708 L 14.667 16.792 L 15.000 16.792 L 15.083 16.708 L 15.167 16.708 L 15.333 16.542 L 15.333 16.458 L 15.417 16.375 L 15.417 16.042 L 15.333 15.958 L 15.333 15.875 L 15.167 15.708 L 15.083 15.708 L 15.000 15.625 Z M 16.333 12.875 L 16.333 13.208 L 16.583 13.458 L 16.667 13.458 L 16.750 13.542 L 19.250 13.542 L 19.333 13.458 L 19.417 13.458 L 19.667 13.208 L 19.667 12.875 L 19.583 12.792 L 19.583 12.708 L 19.417 12.542 L 19.333 12.542 L 19.250 12.458 L 16.750 12.458 L 16.667 12.542 L 16.583 12.542 L 16.417 12.708 L 16.417 12.792 Z M 14.417 12.542 L 14.417 12.625 L 14.250 12.792 L 14.250 13.208 L 14.333 13.292 L 14.333 13.375 L 14.583 13.542 L 15.083 13.542 L 15.167 13.458 L 15.250 13.458 L 15.417 13.208 L 15.417 12.792 L 15.333 12.708 L 15.333 12.625 L 15.083 12.458 L 14.583 12.458 L 14.500 12.542 Z M 14.250 9.792 L 14.250 10.125 L 14.333 10.208 L 14.333 10.292 L 14.583 10.458 L 19.333 10.458 L 19.417 10.375 L 19.500 10.375 L 19.500 10.292 L 19.667 10.125 L 19.667 9.792 L 19.583 9.708 L 19.583 9.625 L 19.333 9.458 L 14.583 9.458 L 14.500 9.542 L 14.417 9.542 Z M 19.667 6.958 L 19.583 6.875 L 19.583 6.792 L 19.417 6.625 L 18.333 6.625 L 18.250 6.542 L 17.917 6.542 L 17.833 6.625 L 14.500 6.625 L 14.250 6.875 L 14.250 7.292 L 14.333 7.375 L 14.333 7.458 L 14.417 7.458 L 14.667 7.625 L 19.250 7.625 L 19.333 7.542 L 19.417 7.542 L 19.667 7.292 Z M 3.083 3.708 L 3.000 3.792 L 2.917 3.792 L 2.500 4.208 L 2.500 4.292 L 2.333 4.542 L 2.333 5.125 L 2.250 5.208 L 2.250 19.125 L 2.333 19.208 L 2.333 19.458 L 2.417 19.542 L 2.417 19.625 L 2.500 19.708 L 2.500 19.792 L 2.750 20.042 L 2.833 20.042 L 3.000 20.208 L 3.167 20.208 L 3.250 20.292 L 10.750 20.292 L 10.833 20.208 L 10.917 20.208 L 11.000 20.125 L 11.083 20.125 L 11.500 19.708 L 11.500 19.625 L 11.583 19.542 L 11.583 19.292 L 11.667 19.208 L 11.667 4.792 L 11.583 4.708 L 11.583 4.458 L 11.500 4.375 L 11.500 4.292 L 11.000 3.792 L 10.917 3.792 L 10.833 3.708 L 10.667 3.708 L 10.583 3.625 L 3.333 3.625 L 3.250 3.708 Z M 3.500 4.542 L 10.500 4.542 L 10.667 4.708 L 10.667 4.792 L 10.750 4.875 L 10.750 19.125 L 10.417 19.458 L 8.167 19.458 L 8.083 19.375 L 7.833 19.375 L 7.750 19.458 L 3.583 19.458 L 3.500 19.375 L 3.417 19.375 L 3.250 19.208 L 3.250 19.125 L 3.167 19.042 L 3.167 4.958 L 3.250 4.875 L 3.250 4.792 Z M 4.417 15.375 L 4.417 15.875 L 4.500 15.958 L 4.500 16.042 L 4.583 16.042 L 4.667 16.125 L 4.833 16.125 L 4.917 16.208 L 7.000 16.208 L 7.083 16.125 L 7.833 16.125 L 8.000 15.958 L 8.000 15.875 L 8.083 15.792 L 8.083 15.458 L 7.833 15.208 L 7.750 15.208 L 7.667 15.125 L 4.833 15.125 L 4.750 15.208 L 4.583 15.208 Z M 4.417 12.542 L 4.417 12.958 L 4.500 13.042 L 4.500 13.125 L 4.583 13.125 L 4.833 13.292 L 7.667 13.292 L 7.750 13.208 L 7.833 13.208 L 8.000 13.042 L 8.000 12.958 L 8.083 12.875 L 8.083 12.625 L 8.000 12.542 L 8.000 12.458 L 7.833 12.292 L 4.667 12.292 Z M 4.417 9.708 L 4.417 10.208 L 4.500 10.292 L 4.500 10.375 L 4.583 10.375 L 4.667 10.458 L 9.417 10.458 L 9.500 10.375 L 9.583 10.375 L 9.583 10.292 L 9.750 10.042 L 9.750 9.875 L 9.667 9.792 L 9.667 9.708 L 9.500 9.542 L 9.333 9.542 L 9.250 9.458 L 6.333 9.458 L 6.250 9.542 L 5.917 9.542 L 5.833 9.458 L 5.000 9.458 L 4.917 9.542 L 4.583 9.542 Z M 4.333 7.125 L 4.417 7.208 L 4.417 7.375 L 4.583 7.542 L 4.667 7.542 L 4.750 7.625 L 9.333 7.625 L 9.417 7.542 L 9.500 7.542 L 9.750 7.292 L 9.750 6.958 L 9.667 6.875 L 9.667 6.792 L 9.417 6.625 L 4.667 6.625 L 4.583 6.708 L 4.500 6.708 L 4.500 6.792 L 4.417 6.875 L 4.417 7.042 Z"/></svg>
